<svg version="1.1" xmlns="http://www.w3.org/2000/svg" viewBox="0 0 99.26016065856743 116.74134160986233" width="99.26016065856743" height="116.74134160986233"><!-- svg-source:excalidraw --><metadata></metadata><defs><style class="style-fonts">
      </style></defs><rect x="0" y="0" width="99.26016065856743" height="116.74134160986233" fill="#ffffff"></rect><g stroke-linecap="round"><g transform="translate(36.091100996708064 41.275545424411916) rotate(0 14.254114663359871 9.140245807047336)" fill-rule="evenodd"><path d="M0 0 C-0.09 -2.32, -0.54 -10.45, -0.54 -13.92 C-0.54 -17.4, -0.39 -18.87, 0 -20.85 C0.39 -22.83, 1.08 -24.49, 1.82 -25.8 C2.55 -27.11, 3.3 -27.85, 4.41 -28.7 C5.52 -29.55, 6.97 -30.49, 8.47 -30.9 C9.97 -31.32, 11.75 -31.32, 13.42 -31.21 C15.1 -31.1, 17.04 -30.77, 18.53 -30.25 C20.01 -29.72, 21.25 -28.94, 22.32 -28.08 C23.38 -27.22, 24.1 -26.24, 24.91 -25.06 C25.72 -23.88, 26.59 -22.59, 27.15 -21 C27.72 -19.42, 28.12 -17.33, 28.31 -15.55 C28.51 -13.77, 28.26 -12.05, 28.31 -10.33 C28.36 -8.61, 28.36 -6.72, 28.62 -5.22 C28.88 -3.72, 29.12 -2.9, 29.86 -1.32 C30.6 0.27, 31.74 2.4, 33.07 4.29 C34.4 6.19, 36.51 8.35, 37.83 10.06 C39.14 11.76, 40.06 12.87, 40.96 14.5 C41.86 16.14, 42.53 17.8, 43.2 19.84 C43.88 21.89, 44.67 25.08, 45.02 26.77 C45.38 28.45, 45.33 28.72, 45.33 29.94 C45.33 31.16, 45.27 32.86, 45.02 34.08 C44.78 35.29, 44.4 36.24, 43.86 37.22 C43.32 38.19, 42.68 39.12, 41.77 39.93 C40.86 40.73, 39.41 41.67, 38.41 42.05 C37.41 42.43, 36.69 42.38, 35.78 42.21 C34.86 42.03, 33.51 41.75, 32.92 41.01 C32.32 40.27, 32.28 38.57, 32.22 37.76 C32.16 36.95, 32.78 36.44, 32.57 36.14 C32.35 35.83, 31.05 36.7, 30.94 35.94 C30.84 35.19, 31.78 33.14, 31.95 31.61 C32.12 30.08, 32.14 28.6, 31.95 26.78 C31.76 24.95, 31.38 22.58, 30.83 20.66 C30.27 18.75, 29.38 16.6, 28.62 15.29 C27.86 13.98, 26.72 13.7, 26.26 12.81 C25.81 11.92, 26.1 10.9, 25.88 9.95 C25.66 9, 25.48 8.31, 24.95 7.09 C24.42 5.87, 23.45 4.18, 22.7 2.64 C21.96 1.1, 20.8 -0.87, 20.5 -2.18 C20.2 -3.48, 21.08 -4.41, 20.89 -5.19 C20.69 -5.98, 20.25 -6.31, 19.34 -6.89 C18.43 -7.48, 16.54 -8.25, 15.43 -8.71 C14.32 -9.17, 13.76 -9.46, 12.69 -9.64 C11.62 -9.82, 10.28 -10.14, 9.01 -9.8 C7.75 -9.45, 6.28 -8.49, 5.11 -7.59 C3.93 -6.69, 2.41 -5.64, 1.97 -4.42 C1.53 -3.2, 2.37 -1.32, 2.48 -0.28 C2.58 0.76, 2.87 0.82, 2.59 1.85 C2.31 2.87, 1.55 4.54, 0.81 5.87 C0.08 7.2, -1.27 8.42, -1.82 9.81 C-2.37 11.21, -1.91 12.68, -2.48 14.22 C-3.04 15.76, -4.44 17.4, -5.22 19.06 C-6.01 20.72, -6.65 22.25, -7.19 24.16 C-7.74 26.08, -8.26 28.84, -8.47 30.54 C-8.68 32.23, -9.23 32.95, -8.47 34.33 C-7.71 35.71, -5.58 37.31, -3.91 38.81 C-2.24 40.32, 0.37 42.13, 1.55 43.34 C2.72 44.55, 3.02 45.24, 3.13 46.09 C3.25 46.94, 2.91 47.92, 2.24 48.45 C1.57 48.97, 0.2 50.13, -0.89 49.22 C-1.98 48.31, -3.22 44.77, -4.29 42.99 C-5.36 41.21, -6.39 39.74, -7.31 38.54 C-8.23 37.34, -8.96 36.56, -9.79 35.8 C-10.61 35.04, -11.48 34.22, -12.26 33.98 C-13.04 33.73, -13.99 34.11, -14.47 34.33 C-14.94 34.54, -14.73 35.66, -15.12 35.26 C-15.52 34.85, -16.82 33, -16.83 31.89 C-16.83 30.78, -15.83 29.93, -15.16 28.6 C-14.49 27.28, -13.54 25.46, -12.8 23.92 C-12.06 22.38, -11.32 21.02, -10.71 19.36 C-10.11 17.7, -10.1 15.84, -9.17 13.98 C-8.24 12.13, -6.56 10.03, -5.14 8.23 C-3.73 6.43, -1.53 4.55, -0.7 3.2 C0.14 1.85, -0.24 0.65, -0.15 0.15" stroke="none" stroke-width="0" fill="#000" fill-rule="evenodd"></path><path d="M0 0 C-0.09 -2.32, -0.54 -10.45, -0.54 -13.92 C-0.54 -17.4, -0.39 -18.87, 0 -20.85 C0.39 -22.83, 1.08 -24.49, 1.82 -25.8 C2.55 -27.11, 3.3 -27.85, 4.41 -28.7 C5.52 -29.55, 6.97 -30.49, 8.47 -30.9 C9.97 -31.32, 11.75 -31.32, 13.42 -31.21 C15.1 -31.1, 17.04 -30.77, 18.53 -30.25 C20.01 -29.72, 21.25 -28.94, 22.32 -28.08 C23.38 -27.22, 24.1 -26.24, 24.91 -25.06 C25.72 -23.88, 26.59 -22.59, 27.15 -21 C27.72 -19.42, 28.12 -17.33, 28.31 -15.55 C28.51 -13.77, 28.26 -12.05, 28.31 -10.33 C28.36 -8.61, 28.36 -6.72, 28.62 -5.22 C28.88 -3.72, 29.12 -2.9, 29.86 -1.32 C30.6 0.27, 31.74 2.4, 33.07 4.29 C34.4 6.19, 36.51 8.35, 37.83 10.06 C39.14 11.76, 40.06 12.87, 40.96 14.5 C41.86 16.14, 42.53 17.8, 43.2 19.84 C43.88 21.89, 44.67 25.08, 45.02 26.77 C45.38 28.45, 45.33 28.72, 45.33 29.94 C45.33 31.16, 45.27 32.86, 45.02 34.08 C44.78 35.29, 44.4 36.24, 43.86 37.22 C43.32 38.19, 42.68 39.12, 41.77 39.93 C40.86 40.73, 39.41 41.67, 38.41 42.05 C37.41 42.43, 36.69 42.38, 35.78 42.21 C34.86 42.03, 33.51 41.75, 32.92 41.01 C32.32 40.27, 32.28 38.57, 32.22 37.76 C32.16 36.95, 32.78 36.44, 32.57 36.14 C32.35 35.83, 31.05 36.7, 30.94 35.94 C30.84 35.19, 31.78 33.14, 31.95 31.61 C32.12 30.08, 32.14 28.6, 31.95 26.78 C31.76 24.95, 31.38 22.58, 30.83 20.66 C30.27 18.75, 29.38 16.6, 28.62 15.29 C27.86 13.98, 26.72 13.7, 26.26 12.81 C25.81 11.92, 26.1 10.9, 25.88 9.95 C25.66 9, 25.48 8.31, 24.95 7.09 C24.42 5.87, 23.45 4.18, 22.7 2.64 C21.96 1.1, 20.8 -0.87, 20.5 -2.18 C20.2 -3.48, 21.08 -4.41, 20.89 -5.19 C20.69 -5.98, 20.25 -6.31, 19.34 -6.89 C18.43 -7.48, 16.54 -8.25, 15.43 -8.71 C14.32 -9.17, 13.76 -9.46, 12.69 -9.64 C11.62 -9.82, 10.28 -10.14, 9.01 -9.8 C7.75 -9.45, 6.28 -8.49, 5.11 -7.59 C3.93 -6.69, 2.41 -5.64, 1.97 -4.42 C1.53 -3.2, 2.37 -1.32, 2.48 -0.28 C2.58 0.76, 2.87 0.82, 2.59 1.85 C2.31 2.87, 1.55 4.54, 0.81 5.87 C0.08 7.2, -1.27 8.42, -1.82 9.81 C-2.37 11.21, -1.91 12.68, -2.48 14.22 C-3.04 15.76, -4.44 17.4, -5.22 19.06 C-6.01 20.72, -6.65 22.25, -7.19 24.16 C-7.74 26.08, -8.26 28.84, -8.47 30.54 C-8.68 32.23, -9.23 32.95, -8.47 34.33 C-7.71 35.71, -5.58 37.31, -3.91 38.81 C-2.24 40.32, 0.37 42.13, 1.55 43.34 C2.72 44.55, 3.02 45.24, 3.13 46.09 C3.25 46.94, 2.91 47.92, 2.24 48.45 C1.57 48.97, 0.2 50.13, -0.89 49.22 C-1.98 48.31, -3.22 44.77, -4.29 42.99 C-5.36 41.21, -6.39 39.74, -7.31 38.54 C-8.23 37.34, -8.96 36.56, -9.79 35.8 C-10.61 35.04, -11.48 34.22, -12.26 33.98 C-13.04 33.73, -13.99 34.11, -14.47 34.33 C-14.94 34.54, -14.73 35.66, -15.12 35.26 C-15.52 34.85, -16.82 33, -16.83 31.89 C-16.83 30.78, -15.83 29.93, -15.16 28.6 C-14.49 27.28, -13.54 25.46, -12.8 23.92 C-12.06 22.38, -11.32 21.02, -10.71 19.36 C-10.11 17.7, -10.1 15.84, -9.17 13.98 C-8.24 12.13, -6.56 10.03, -5.14 8.23 C-3.73 6.43, -1.53 4.55, -0.7 3.2 C0.14 1.85, -0.24 0.65, -0.15 0.15 M0 0 C-0.09 -2.32, -0.54 -10.45, -0.54 -13.92 C-0.54 -17.4, -0.39 -18.87, 0 -20.85 C0.39 -22.83, 1.08 -24.49, 1.82 -25.8 C2.55 -27.11, 3.3 -27.85, 4.41 -28.7 C5.52 -29.55, 6.97 -30.49, 8.47 -30.9 C9.97 -31.32, 11.75 -31.32, 13.42 -31.21 C15.1 -31.1, 17.04 -30.77, 18.53 -30.25 C20.01 -29.72, 21.25 -28.94, 22.32 -28.08 C23.38 -27.22, 24.1 -26.24, 24.91 -25.06 C25.72 -23.88, 26.59 -22.59, 27.15 -21 C27.72 -19.42, 28.12 -17.33, 28.31 -15.55 C28.51 -13.77, 28.26 -12.05, 28.31 -10.33 C28.36 -8.61, 28.36 -6.72, 28.62 -5.22 C28.88 -3.72, 29.12 -2.9, 29.86 -1.32 C30.6 0.27, 31.74 2.4, 33.07 4.29 C34.4 6.19, 36.51 8.35, 37.83 10.06 C39.14 11.76, 40.06 12.87, 40.96 14.5 C41.86 16.14, 42.53 17.8, 43.2 19.84 C43.88 21.89, 44.67 25.08, 45.02 26.77 C45.38 28.45, 45.33 28.72, 45.33 29.94 C45.33 31.16, 45.27 32.86, 45.02 34.08 C44.78 35.29, 44.4 36.24, 43.86 37.22 C43.32 38.19, 42.68 39.12, 41.77 39.93 C40.86 40.73, 39.41 41.67, 38.41 42.05 C37.41 42.43, 36.69 42.38, 35.78 42.21 C34.86 42.03, 33.51 41.75, 32.92 41.01 C32.32 40.27, 32.28 38.57, 32.22 37.76 C32.16 36.95, 32.78 36.44, 32.57 36.14 C32.35 35.83, 31.05 36.7, 30.94 35.94 C30.84 35.19, 31.78 33.14, 31.95 31.61 C32.12 30.08, 32.14 28.6, 31.95 26.78 C31.76 24.95, 31.38 22.58, 30.83 20.66 C30.27 18.75, 29.38 16.6, 28.62 15.29 C27.86 13.98, 26.72 13.7, 26.26 12.81 C25.81 11.92, 26.1 10.9, 25.88 9.95 C25.66 9, 25.48 8.31, 24.95 7.09 C24.42 5.87, 23.45 4.18, 22.7 2.64 C21.96 1.1, 20.8 -0.87, 20.5 -2.18 C20.2 -3.48, 21.08 -4.41, 20.89 -5.19 C20.69 -5.98, 20.25 -6.31, 19.34 -6.89 C18.43 -7.48, 16.54 -8.25, 15.43 -8.71 C14.32 -9.17, 13.76 -9.46, 12.69 -9.64 C11.62 -9.82, 10.28 -10.14, 9.01 -9.8 C7.75 -9.45, 6.28 -8.49, 5.11 -7.59 C3.93 -6.69, 2.41 -5.64, 1.97 -4.42 C1.53 -3.2, 2.37 -1.32, 2.48 -0.28 C2.58 0.76, 2.87 0.82, 2.59 1.85 C2.31 2.87, 1.55 4.54, 0.81 5.87 C0.08 7.2, -1.27 8.42, -1.82 9.81 C-2.37 11.21, -1.91 12.68, -2.48 14.22 C-3.04 15.76, -4.44 17.4, -5.22 19.06 C-6.01 20.72, -6.65 22.25, -7.19 24.16 C-7.74 26.08, -8.26 28.84, -8.47 30.54 C-8.68 32.23, -9.23 32.95, -8.47 34.33 C-7.71 35.71, -5.58 37.31, -3.91 38.81 C-2.24 40.32, 0.37 42.13, 1.55 43.34 C2.72 44.55, 3.02 45.24, 3.13 46.09 C3.25 46.94, 2.91 47.92, 2.24 48.45 C1.57 48.97, 0.2 50.13, -0.89 49.22 C-1.98 48.31, -3.22 44.77, -4.29 42.99 C-5.36 41.21, -6.39 39.74, -7.31 38.54 C-8.23 37.34, -8.96 36.56, -9.79 35.8 C-10.61 35.04, -11.48 34.22, -12.26 33.98 C-13.04 33.73, -13.99 34.11, -14.47 34.33 C-14.94 34.54, -14.73 35.66, -15.12 35.26 C-15.52 34.85, -16.82 33, -16.83 31.89 C-16.83 30.78, -15.83 29.93, -15.16 28.6 C-14.49 27.28, -13.54 25.46, -12.8 23.92 C-12.06 22.38, -11.32 21.02, -10.71 19.36 C-10.11 17.7, -10.1 15.84, -9.17 13.98 C-8.24 12.13, -6.56 10.03, -5.14 8.23 C-3.73 6.43, -1.53 4.55, -0.7 3.2 C0.14 1.85, -0.24 0.65, -0.15 0.15" stroke="#289548" stroke-width="1" fill="none"></path></g></g><mask></mask><g stroke-linecap="round"><g transform="translate(38.34387096864134 38.255398623090855) rotate(0 9.87048621196493 -0.4571842984891248)" fill-rule="evenodd"><path d="M0 0 C0.07 -0.27, 0.08 -1.05, 0.45 -1.64 C0.81 -2.23, 1.6 -2.89, 2.21 -3.54 C2.82 -4.19, 3.32 -4.98, 4.11 -5.54 C4.9 -6.09, 5.99 -6.58, 6.94 -6.87 C7.89 -7.16, 8.88 -7.43, 9.81 -7.27 C10.73 -7.12, 11.6 -6.37, 12.48 -5.94 C13.36 -5.5, 14.2 -5.01, 15.11 -4.67 C16.02 -4.33, 17.18 -4.21, 17.95 -3.89 C18.71 -3.58, 19.55 -3.62, 19.71 -2.77 C19.86 -1.91, 19.48 0.33, 18.86 1.24 C18.24 2.15, 16.86 2.19, 16 2.7 C15.14 3.21, 14.55 3.78, 13.7 4.29 C12.86 4.81, 11.83 5.42, 10.93 5.77 C10.03 6.12, 9.19 6.4, 8.31 6.4 C7.42 6.41, 6.42 6.25, 5.63 5.79 C4.84 5.34, 4.19 4.39, 3.57 3.66 C2.94 2.93, 2.18 1.8, 1.9 1.43" stroke="none" stroke-width="0" fill="#f5c021" fill-rule="evenodd"></path><path d="M0 0 C0.07 -0.27, 0.08 -1.05, 0.45 -1.64 C0.81 -2.23, 1.6 -2.89, 2.21 -3.54 C2.82 -4.19, 3.32 -4.98, 4.11 -5.54 C4.9 -6.09, 5.99 -6.58, 6.94 -6.87 C7.89 -7.16, 8.88 -7.43, 9.81 -7.27 C10.73 -7.12, 11.6 -6.37, 12.48 -5.94 C13.36 -5.5, 14.2 -5.01, 15.11 -4.67 C16.02 -4.33, 17.18 -4.21, 17.95 -3.89 C18.71 -3.58, 19.55 -3.62, 19.71 -2.77 C19.86 -1.91, 19.48 0.33, 18.86 1.24 C18.24 2.15, 16.86 2.19, 16 2.7 C15.14 3.21, 14.55 3.78, 13.7 4.29 C12.86 4.81, 11.83 5.42, 10.93 5.77 C10.03 6.12, 9.19 6.4, 8.31 6.4 C7.42 6.41, 6.42 6.25, 5.63 5.79 C4.84 5.34, 4.19 4.39, 3.57 3.66 C2.94 2.93, 2.18 1.8, 1.9 1.43 M0 0 C0.07 -0.27, 0.08 -1.05, 0.45 -1.64 C0.81 -2.23, 1.6 -2.89, 2.21 -3.54 C2.82 -4.19, 3.32 -4.98, 4.11 -5.54 C4.9 -6.09, 5.99 -6.58, 6.94 -6.87 C7.89 -7.16, 8.88 -7.43, 9.81 -7.27 C10.73 -7.12, 11.6 -6.37, 12.48 -5.94 C13.36 -5.5, 14.2 -5.01, 15.11 -4.67 C16.02 -4.33, 17.18 -4.21, 17.95 -3.89 C18.71 -3.58, 19.55 -3.62, 19.71 -2.77 C19.86 -1.91, 19.48 0.33, 18.86 1.24 C18.24 2.15, 16.86 2.19, 16 2.7 C15.14 3.21, 14.55 3.78, 13.7 4.29 C12.86 4.81, 11.83 5.42, 10.93 5.77 C10.03 6.12, 9.19 6.4, 8.31 6.4 C7.42 6.41, 6.42 6.25, 5.63 5.79 C4.84 5.34, 4.19 4.39, 3.57 3.66 C2.94 2.93, 2.18 1.8, 1.9 1.43" stroke="#289548" stroke-width="1" fill="none"></path></g></g><mask></mask><g stroke-linecap="round"><g transform="translate(39.64203468192704 33.624868319510256) rotate(0 1.6001510107046215 -5.061306545025104)" fill-rule="evenodd"><path d="M0 0 C-0.14 -0.16, -0.57 -0.3, -0.84 -0.96 C-1.1 -1.63, -1.45 -3.02, -1.59 -3.99 C-1.73 -4.95, -1.81 -5.88, -1.68 -6.77 C-1.54 -7.65, -1.35 -8.74, -0.78 -9.3 C-0.2 -9.86, 1 -10.33, 1.78 -10.14 C2.56 -9.95, 3.38 -8.91, 3.9 -8.16 C4.43 -7.4, 4.95 -6.47, 4.95 -5.6 C4.94 -4.74, 4.35 -3.62, 3.86 -2.96 C3.37 -2.31, 2.6 -2.16, 2 -1.66 C1.4 -1.15, 0.56 -0.22, 0.27 0.06" stroke="none" stroke-width="0" fill="#fff" fill-rule="evenodd"></path><path d="M0 0 C-0.14 -0.16, -0.57 -0.3, -0.84 -0.96 C-1.1 -1.63, -1.45 -3.02, -1.59 -3.99 C-1.73 -4.95, -1.81 -5.88, -1.68 -6.77 C-1.54 -7.65, -1.35 -8.74, -0.78 -9.3 C-0.2 -9.86, 1 -10.33, 1.78 -10.14 C2.56 -9.95, 3.38 -8.91, 3.9 -8.16 C4.43 -7.4, 4.95 -6.47, 4.95 -5.6 C4.94 -4.74, 4.35 -3.62, 3.86 -2.96 C3.37 -2.31, 2.6 -2.16, 2 -1.66 C1.4 -1.15, 0.56 -0.22, 0.27 0.06 M0 0 C-0.14 -0.16, -0.57 -0.3, -0.84 -0.96 C-1.1 -1.63, -1.45 -3.02, -1.59 -3.99 C-1.73 -4.95, -1.81 -5.88, -1.68 -6.77 C-1.54 -7.65, -1.35 -8.74, -0.78 -9.3 C-0.2 -9.86, 1 -10.33, 1.78 -10.14 C2.56 -9.95, 3.38 -8.91, 3.9 -8.16 C4.43 -7.4, 4.95 -6.47, 4.95 -5.6 C4.94 -4.74, 4.35 -3.62, 3.86 -2.96 C3.37 -2.31, 2.6 -2.16, 2 -1.66 C1.4 -1.15, 0.56 -0.22, 0.27 0.06" stroke="#289548" stroke-width="1" fill="none"></path></g></g><mask></mask><g stroke-linecap="round"><g transform="translate(51.022125937859755 31.927079666052464) rotate(0 3.5477395749627476 -2.788821736586641)" fill-rule="evenodd"><path d="M0 0 C-0.12 -0.3, -0.56 -1.2, -0.7 -1.78 C-0.85 -2.37, -0.92 -2.92, -0.88 -3.5 C-0.84 -4.08, -0.73 -4.73, -0.44 -5.28 C-0.15 -5.84, 0.28 -6.41, 0.84 -6.85 C1.39 -7.28, 2.18 -7.83, 2.91 -7.9 C3.64 -7.98, 4.5 -7.73, 5.22 -7.31 C5.94 -6.89, 6.79 -6.03, 7.22 -5.37 C7.65 -4.72, 7.69 -4.06, 7.82 -3.37 C7.94 -2.68, 8.03 -1.86, 7.97 -1.21 C7.91 -0.57, 7.75 -0.08, 7.46 0.51 C7.18 1.09, 6.92 2.09, 6.27 2.29 C5.63 2.49, 4.61 2.07, 3.59 1.7 C2.57 1.32, 0.74 0.34, 0.18 0.07" stroke="none" stroke-width="0" fill="#fff" fill-rule="evenodd"></path><path d="M0 0 C-0.12 -0.3, -0.56 -1.2, -0.7 -1.78 C-0.85 -2.37, -0.92 -2.92, -0.88 -3.5 C-0.84 -4.08, -0.73 -4.73, -0.44 -5.28 C-0.15 -5.84, 0.28 -6.41, 0.84 -6.85 C1.39 -7.28, 2.18 -7.83, 2.91 -7.9 C3.64 -7.98, 4.5 -7.73, 5.22 -7.31 C5.94 -6.89, 6.79 -6.03, 7.22 -5.37 C7.65 -4.72, 7.69 -4.06, 7.82 -3.37 C7.94 -2.68, 8.03 -1.86, 7.97 -1.21 C7.91 -0.57, 7.75 -0.08, 7.46 0.51 C7.18 1.09, 6.92 2.09, 6.27 2.29 C5.63 2.49, 4.61 2.07, 3.59 1.7 C2.57 1.32, 0.74 0.34, 0.18 0.07 M0 0 C-0.12 -0.3, -0.56 -1.2, -0.7 -1.78 C-0.85 -2.37, -0.92 -2.92, -0.88 -3.5 C-0.84 -4.08, -0.73 -4.73, -0.44 -5.28 C-0.15 -5.84, 0.28 -6.41, 0.84 -6.85 C1.39 -7.28, 2.18 -7.83, 2.91 -7.9 C3.64 -7.98, 4.5 -7.73, 5.22 -7.31 C5.94 -6.89, 6.79 -6.03, 7.22 -5.37 C7.65 -4.72, 7.69 -4.06, 7.82 -3.37 C7.94 -2.68, 8.03 -1.86, 7.97 -1.21 C7.91 -0.57, 7.75 -0.08, 7.46 0.51 C7.18 1.09, 6.92 2.09, 6.27 2.29 C5.63 2.49, 4.61 2.07, 3.59 1.7 C2.57 1.32, 0.74 0.34, 0.18 0.07" stroke="#289548" stroke-width="1" fill="none"></path></g></g><mask></mask><g stroke-linecap="round"><g transform="translate(12.001922192106349 89.65163480286753) rotate(0 13.294029468233532 0.930308133984397)" fill-rule="evenodd"><path d="M0 0 C-0.04 -0.59, -0.16 -2.34, -0.23 -3.51 C-0.3 -4.69, -0.89 -6.14, -0.42 -7.06 C0.05 -7.97, 1.6 -8.74, 2.6 -9.01 C3.6 -9.28, 4.61 -8.45, 5.56 -8.68 C6.52 -8.92, 7.59 -9.75, 8.33 -10.44 C9.06 -11.13, 9.33 -12.24, 9.95 -12.85 C10.58 -13.45, 11.22 -14.17, 12.07 -14.08 C12.91 -14, 13.73 -13.74, 15.03 -12.33 C16.32 -10.92, 18.2 -8.04, 19.84 -5.63 C21.48 -3.21, 23.47 0.13, 24.88 2.18 C26.3 4.23, 27.76 5.5, 28.33 6.67 C28.9 7.84, 28.35 8.29, 28.33 9.2 C28.31 10.12, 28.48 11.34, 28.2 12.16 C27.92 12.99, 27.31 13.56, 26.67 14.15 C26.03 14.73, 25.4 15.4, 24.36 15.68 C23.32 15.95, 21.78 16.06, 20.43 15.81 C19.08 15.55, 18.13 14.68, 16.26 14.15 C14.4 13.62, 11.49 13.18, 9.24 12.62 C6.98 12.06, 4.38 11.28, 2.73 10.77 C1.08 10.26, 0.14 10, -0.65 9.56 C-1.44 9.12, -1.87 8.7, -1.98 8.13 C-2.1 7.56, -1.64 6.92, -1.33 6.15 C-1.02 5.38, -0.38 4.48, -0.13 3.51 C0.12 2.54, 0.14 0.86, 0.2 0.33" stroke="none" stroke-width="0" fill="#f5c021" fill-rule="evenodd"></path><path d="M0 0 C-0.04 -0.59, -0.16 -2.34, -0.23 -3.51 C-0.3 -4.69, -0.89 -6.14, -0.42 -7.06 C0.05 -7.97, 1.6 -8.74, 2.6 -9.01 C3.6 -9.28, 4.61 -8.45, 5.56 -8.68 C6.52 -8.92, 7.59 -9.75, 8.33 -10.44 C9.06 -11.13, 9.33 -12.24, 9.95 -12.85 C10.58 -13.45, 11.22 -14.17, 12.07 -14.08 C12.91 -14, 13.73 -13.74, 15.03 -12.33 C16.32 -10.92, 18.2 -8.04, 19.84 -5.63 C21.48 -3.21, 23.47 0.13, 24.88 2.18 C26.3 4.23, 27.76 5.5, 28.33 6.67 C28.9 7.84, 28.35 8.29, 28.33 9.2 C28.31 10.12, 28.48 11.34, 28.2 12.16 C27.92 12.99, 27.31 13.56, 26.67 14.15 C26.03 14.73, 25.4 15.4, 24.36 15.68 C23.32 15.95, 21.78 16.06, 20.43 15.81 C19.08 15.55, 18.13 14.68, 16.26 14.15 C14.4 13.62, 11.49 13.18, 9.24 12.62 C6.98 12.06, 4.38 11.28, 2.73 10.77 C1.08 10.26, 0.14 10, -0.65 9.56 C-1.44 9.12, -1.87 8.7, -1.98 8.13 C-2.1 7.56, -1.64 6.92, -1.33 6.15 C-1.02 5.38, -0.38 4.48, -0.13 3.51 C0.12 2.54, 0.14 0.86, 0.2 0.33 M0 0 C-0.04 -0.59, -0.16 -2.34, -0.23 -3.51 C-0.3 -4.69, -0.89 -6.14, -0.42 -7.06 C0.05 -7.97, 1.6 -8.74, 2.6 -9.01 C3.6 -9.28, 4.61 -8.45, 5.56 -8.68 C6.52 -8.92, 7.59 -9.75, 8.33 -10.44 C9.06 -11.13, 9.33 -12.24, 9.95 -12.85 C10.58 -13.45, 11.22 -14.17, 12.07 -14.08 C12.91 -14, 13.73 -13.74, 15.03 -12.33 C16.32 -10.92, 18.2 -8.04, 19.84 -5.63 C21.48 -3.21, 23.47 0.13, 24.88 2.18 C26.3 4.23, 27.76 5.5, 28.33 6.67 C28.9 7.84, 28.35 8.29, 28.33 9.2 C28.31 10.12, 28.48 11.34, 28.2 12.16 C27.92 12.99, 27.31 13.56, 26.67 14.15 C26.03 14.73, 25.4 15.4, 24.36 15.68 C23.32 15.95, 21.78 16.06, 20.43 15.81 C19.08 15.55, 18.13 14.68, 16.26 14.15 C14.4 13.62, 11.49 13.18, 9.24 12.62 C6.98 12.06, 4.38 11.28, 2.73 10.77 C1.08 10.26, 0.14 10, -0.65 9.56 C-1.44 9.12, -1.87 8.7, -1.98 8.13 C-2.1 7.56, -1.64 6.92, -1.33 6.15 C-1.02 5.38, -0.38 4.48, -0.13 3.51 C0.12 2.54, 0.14 0.86, 0.2 0.33" stroke="#289548" stroke-width="1" fill="none"></path></g></g><mask></mask><g stroke-linecap="round"><g transform="translate(63.44324655527771 80.15506319658596) rotate(0 11.932159953230155 12.281847341791718)" fill-rule="evenodd"><path d="M0 0 C0.11 -0.33, -0.17 -1.7, 0.65 -1.95 C1.47 -2.21, 2.29 -1.71, 4.94 -1.53 C7.59 -1.35, 14.22 -1.33, 16.56 -0.88 C18.89 -0.42, 18.54 0.28, 18.96 1.2 C19.39 2.13, 18.56 3.5, 19.09 4.65 C19.62 5.81, 21.14 7.15, 22.15 8.13 C23.16 9.11, 24.55 9.7, 25.14 10.54 C25.73 11.38, 25.99 12.33, 25.7 13.17 C25.4 14.02, 24.49 14.8, 23.39 15.61 C22.29 16.43, 20.41 17.32, 19.09 18.05 C17.78 18.78, 16.58 19.26, 15.48 20 C14.39 20.75, 13.62 21.54, 12.52 22.51 C11.43 23.47, 10.25 25.12, 8.91 25.79 C7.58 26.47, 5.93 26.64, 4.52 26.57 C3.11 26.51, 1.46 26.02, 0.46 25.4 C-0.55 24.78, -1.14 24.07, -1.53 22.87 C-1.92 21.66, -2.04 19.8, -1.89 18.15 C-1.73 16.5, -0.92 14.92, -0.59 12.98 C-0.25 11.04, 0.02 8.63, 0.1 6.51 C0.18 4.38, -0.07 1.27, -0.1 0.23" stroke="none" stroke-width="0" fill="#f5c021" fill-rule="evenodd"></path><path d="M0 0 C0.11 -0.33, -0.17 -1.7, 0.65 -1.95 C1.47 -2.21, 2.29 -1.71, 4.94 -1.53 C7.59 -1.35, 14.22 -1.33, 16.56 -0.88 C18.89 -0.42, 18.54 0.28, 18.96 1.2 C19.39 2.13, 18.56 3.5, 19.09 4.65 C19.62 5.81, 21.14 7.15, 22.15 8.13 C23.16 9.11, 24.55 9.7, 25.14 10.54 C25.73 11.38, 25.99 12.33, 25.7 13.17 C25.4 14.02, 24.49 14.8, 23.39 15.61 C22.29 16.43, 20.41 17.32, 19.09 18.05 C17.78 18.78, 16.58 19.26, 15.48 20 C14.39 20.75, 13.62 21.54, 12.52 22.51 C11.43 23.47, 10.25 25.12, 8.91 25.79 C7.58 26.47, 5.93 26.64, 4.52 26.57 C3.11 26.51, 1.46 26.02, 0.46 25.4 C-0.55 24.78, -1.14 24.07, -1.53 22.87 C-1.92 21.66, -2.04 19.8, -1.89 18.15 C-1.73 16.5, -0.92 14.92, -0.59 12.98 C-0.25 11.04, 0.02 8.63, 0.1 6.51 C0.18 4.38, -0.07 1.27, -0.1 0.23 M0 0 C0.11 -0.33, -0.17 -1.7, 0.65 -1.95 C1.47 -2.21, 2.29 -1.71, 4.94 -1.53 C7.59 -1.35, 14.22 -1.33, 16.56 -0.88 C18.89 -0.42, 18.54 0.28, 18.96 1.2 C19.39 2.13, 18.56 3.5, 19.09 4.65 C19.62 5.81, 21.14 7.15, 22.15 8.13 C23.16 9.11, 24.55 9.7, 25.14 10.54 C25.73 11.38, 25.99 12.33, 25.7 13.17 C25.4 14.02, 24.49 14.8, 23.39 15.61 C22.29 16.43, 20.41 17.32, 19.09 18.05 C17.78 18.78, 16.58 19.26, 15.48 20 C14.39 20.75, 13.62 21.54, 12.52 22.51 C11.43 23.47, 10.25 25.12, 8.91 25.79 C7.58 26.47, 5.93 26.64, 4.52 26.57 C3.11 26.51, 1.46 26.02, 0.46 25.4 C-0.55 24.78, -1.14 24.07, -1.53 22.87 C-1.92 21.66, -2.04 19.8, -1.89 18.15 C-1.73 16.5, -0.92 14.92, -0.59 12.98 C-0.25 11.04, 0.02 8.63, 0.1 6.51 C0.18 4.38, -0.07 1.27, -0.1 0.23" stroke="#289548" stroke-width="1" fill="none"></path></g></g><mask></mask><g stroke-linecap="round" transform="translate(38.90840941961028 27.518284645780398) rotate(0 1.8485315402783726 2.8175212345197735)"><path d="M3.7 2.82 C3.7 2.98, 3.69 3.15, 3.67 3.31 C3.65 3.47, 3.62 3.63, 3.59 3.78 C3.55 3.93, 3.5 4.09, 3.45 4.23 C3.4 4.37, 3.33 4.5, 3.26 4.63 C3.2 4.75, 3.12 4.87, 3.04 4.98 C2.95 5.08, 2.87 5.18, 2.77 5.26 C2.68 5.34, 2.58 5.41, 2.48 5.47 C2.38 5.52, 2.27 5.56, 2.17 5.59 C2.06 5.62, 1.96 5.64, 1.85 5.64 C1.74 5.64, 1.63 5.62, 1.53 5.59 C1.42 5.56, 1.32 5.52, 1.22 5.47 C1.12 5.41, 1.02 5.34, 0.92 5.26 C0.83 5.18, 0.74 5.08, 0.66 4.98 C0.58 4.87, 0.5 4.75, 0.43 4.63 C0.36 4.5, 0.3 4.37, 0.25 4.23 C0.19 4.09, 0.15 3.93, 0.11 3.78 C0.07 3.63, 0.05 3.47, 0.03 3.31 C0.01 3.15, 0 2.98, 0 2.82 C0 2.65, 0.01 2.49, 0.03 2.33 C0.05 2.17, 0.07 2.01, 0.11 1.85 C0.15 1.7, 0.19 1.55, 0.25 1.41 C0.3 1.27, 0.36 1.13, 0.43 1.01 C0.5 0.88, 0.58 0.76, 0.66 0.66 C0.74 0.55, 0.83 0.46, 0.92 0.38 C1.02 0.3, 1.12 0.23, 1.22 0.17 C1.32 0.11, 1.42 0.07, 1.53 0.04 C1.63 0.01, 1.74 0, 1.85 0 C1.96 0, 2.06 0.01, 2.17 0.04 C2.27 0.07, 2.38 0.11, 2.48 0.17 C2.58 0.23, 2.68 0.3, 2.77 0.38 C2.87 0.46, 2.95 0.55, 3.04 0.66 C3.12 0.76, 3.2 0.88, 3.26 1.01 C3.33 1.13, 3.4 1.27, 3.45 1.41 C3.5 1.55, 3.55 1.7, 3.59 1.85 C3.62 2.01, 3.65 2.17, 3.67 2.33 C3.69 2.49, 3.69 2.74, 3.7 2.82 C3.7 2.9, 3.7 2.74, 3.7 2.82" stroke="none" stroke-width="0" fill="#000"></path><path d="M3.7 2.82 C3.7 2.98, 3.69 3.15, 3.67 3.31 C3.65 3.47, 3.62 3.63, 3.59 3.78 C3.55 3.93, 3.5 4.09, 3.45 4.23 C3.4 4.37, 3.33 4.5, 3.26 4.63 C3.2 4.75, 3.12 4.87, 3.04 4.98 C2.95 5.08, 2.87 5.18, 2.77 5.26 C2.68 5.34, 2.58 5.41, 2.48 5.47 C2.38 5.52, 2.27 5.56, 2.17 5.59 C2.06 5.62, 1.96 5.64, 1.85 5.64 C1.74 5.64, 1.63 5.62, 1.53 5.59 C1.42 5.56, 1.32 5.52, 1.22 5.47 C1.12 5.41, 1.02 5.34, 0.92 5.26 C0.83 5.18, 0.74 5.08, 0.66 4.98 C0.58 4.87, 0.5 4.75, 0.43 4.63 C0.36 4.5, 0.3 4.37, 0.25 4.23 C0.19 4.09, 0.15 3.93, 0.11 3.78 C0.07 3.63, 0.05 3.47, 0.03 3.31 C0.01 3.15, 0 2.98, 0 2.82 C0 2.65, 0.01 2.49, 0.03 2.33 C0.05 2.17, 0.07 2.01, 0.11 1.85 C0.15 1.7, 0.19 1.55, 0.25 1.41 C0.3 1.27, 0.36 1.13, 0.43 1.01 C0.5 0.88, 0.58 0.76, 0.66 0.66 C0.74 0.55, 0.83 0.46, 0.92 0.38 C1.02 0.3, 1.12 0.23, 1.22 0.17 C1.32 0.11, 1.42 0.07, 1.53 0.04 C1.63 0.01, 1.74 0, 1.85 0 C1.96 0, 2.06 0.01, 2.17 0.04 C2.27 0.07, 2.38 0.11, 2.48 0.17 C2.58 0.23, 2.68 0.3, 2.77 0.38 C2.87 0.46, 2.95 0.55, 3.04 0.66 C3.12 0.76, 3.2 0.88, 3.26 1.01 C3.33 1.13, 3.4 1.27, 3.45 1.41 C3.5 1.55, 3.55 1.7, 3.59 1.85 C3.62 2.01, 3.65 2.17, 3.67 2.33 C3.69 2.49, 3.69 2.74, 3.7 2.82 C3.7 2.9, 3.7 2.74, 3.7 2.82" stroke="#289548" stroke-width="1" fill="none"></path></g><g stroke-linecap="round" transform="translate(50.32757001022537 27.309581188914592) rotate(0 2.5044660492215485 2.9367819612714356)"><path d="M5.01 2.94 C5.01 3.11, 5 3.28, 4.97 3.45 C4.95 3.61, 4.91 3.78, 4.86 3.94 C4.81 4.1, 4.75 4.26, 4.67 4.41 C4.6 4.55, 4.52 4.69, 4.42 4.82 C4.33 4.95, 4.23 5.08, 4.11 5.19 C4 5.3, 3.88 5.4, 3.76 5.48 C3.63 5.57, 3.5 5.64, 3.36 5.7 C3.22 5.75, 3.08 5.8, 2.94 5.83 C2.8 5.86, 2.65 5.87, 2.5 5.87 C2.36 5.87, 2.21 5.86, 2.07 5.83 C1.93 5.8, 1.78 5.75, 1.65 5.7 C1.51 5.64, 1.38 5.57, 1.25 5.48 C1.13 5.4, 1.01 5.3, 0.89 5.19 C0.78 5.08, 0.68 4.95, 0.59 4.82 C0.49 4.69, 0.41 4.55, 0.34 4.41 C0.26 4.26, 0.2 4.1, 0.15 3.94 C0.1 3.78, 0.06 3.61, 0.04 3.45 C0.01 3.28, 0 3.11, 0 2.94 C0 2.77, 0.01 2.59, 0.04 2.43 C0.06 2.26, 0.1 2.09, 0.15 1.93 C0.2 1.77, 0.26 1.62, 0.34 1.47 C0.41 1.32, 0.49 1.18, 0.59 1.05 C0.68 0.92, 0.78 0.8, 0.89 0.69 C1.01 0.58, 1.13 0.48, 1.25 0.39 C1.38 0.31, 1.51 0.24, 1.65 0.18 C1.78 0.12, 1.93 0.07, 2.07 0.04 C2.21 0.02, 2.36 0, 2.5 0 C2.65 0, 2.8 0.02, 2.94 0.04 C3.08 0.07, 3.22 0.12, 3.36 0.18 C3.5 0.24, 3.63 0.31, 3.76 0.39 C3.88 0.48, 4 0.58, 4.11 0.69 C4.23 0.8, 4.33 0.92, 4.42 1.05 C4.52 1.18, 4.6 1.32, 4.67 1.47 C4.75 1.62, 4.81 1.77, 4.86 1.93 C4.91 2.09, 4.95 2.26, 4.97 2.43 C5 2.59, 5 2.85, 5.01 2.94 C5.02 3.02, 5.02 2.85, 5.01 2.94" stroke="none" stroke-width="0" fill="#000"></path><path d="M5.01 2.94 C5.01 3.11, 5 3.28, 4.97 3.45 C4.95 3.61, 4.91 3.78, 4.86 3.94 C4.81 4.1, 4.75 4.26, 4.67 4.41 C4.6 4.55, 4.52 4.69, 4.42 4.82 C4.33 4.95, 4.23 5.08, 4.11 5.19 C4 5.3, 3.88 5.4, 3.76 5.48 C3.63 5.57, 3.5 5.64, 3.36 5.7 C3.22 5.75, 3.08 5.8, 2.94 5.83 C2.8 5.86, 2.65 5.87, 2.5 5.87 C2.36 5.87, 2.21 5.86, 2.07 5.83 C1.93 5.8, 1.78 5.75, 1.65 5.7 C1.51 5.64, 1.38 5.57, 1.25 5.48 C1.13 5.4, 1.01 5.3, 0.89 5.19 C0.78 5.08, 0.68 4.95, 0.59 4.82 C0.49 4.69, 0.41 4.55, 0.34 4.41 C0.26 4.26, 0.2 4.1, 0.15 3.94 C0.1 3.78, 0.06 3.61, 0.04 3.45 C0.01 3.28, 0 3.11, 0 2.94 C0 2.77, 0.01 2.59, 0.04 2.43 C0.06 2.26, 0.1 2.09, 0.15 1.93 C0.2 1.77, 0.26 1.62, 0.34 1.47 C0.41 1.32, 0.49 1.18, 0.59 1.05 C0.68 0.92, 0.78 0.8, 0.89 0.69 C1.01 0.58, 1.13 0.48, 1.25 0.39 C1.38 0.31, 1.51 0.24, 1.65 0.18 C1.78 0.12, 1.93 0.07, 2.07 0.04 C2.21 0.02, 2.36 0, 2.5 0 C2.65 0, 2.8 0.02, 2.94 0.04 C3.08 0.07, 3.22 0.12, 3.36 0.18 C3.5 0.24, 3.63 0.31, 3.76 0.39 C3.88 0.48, 4 0.58, 4.11 0.69 C4.23 0.8, 4.33 0.92, 4.42 1.05 C4.52 1.18, 4.6 1.32, 4.67 1.47 C4.75 1.62, 4.81 1.77, 4.86 1.93 C4.91 2.09, 4.95 2.26, 4.97 2.43 C5 2.59, 5 2.85, 5.01 2.94 C5.02 3.02, 5.02 2.85, 5.01 2.94" stroke="#289548" stroke-width="1" fill="none"></path></g><g stroke-linecap="round"><g transform="translate(38.39520892679889 94.37444547846678) rotate(0 12.878847811390926 1.1071140666424526)" fill-rule="evenodd"><path d="M0 0 C0.68 0.3, 2.56 1.4, 4.1 1.81 C5.64 2.23, 7.72 2.44, 9.25 2.48 C10.79 2.52, 11.85 2.44, 13.29 2.04 C14.74 1.63, 16.63 0.74, 17.9 0.06 C19.18 -0.61, 19.65 -0.99, 20.93 -2.04 C22.2 -3.08, 24.88 -6.33, 25.54 -6.23 C26.2 -6.13, 25.18 -2.83, 24.9 -1.43 C24.62 -0.04, 24.03 1.02, 23.85 2.13 C23.68 3.24, 23.83 4.18, 23.85 5.22 C23.88 6.25, 24.36 7.92, 24.01 8.33 C23.67 8.75, 23.13 7.96, 21.78 7.7 C20.44 7.44, 17.84 6.99, 15.96 6.77 C14.09 6.56, 12.24 6.48, 10.53 6.42 C8.81 6.37, 7.12 6.34, 5.69 6.42 C4.26 6.51, 2.59 7.39, 1.94 6.93 C1.29 6.47, 1.88 4.46, 1.81 3.66 C1.74 2.86, 1.83 2.69, 1.53 2.13 C1.22 1.57, 0.25 0.62, 0 0.32" stroke="none" stroke-width="0" fill="#000" fill-rule="evenodd"></path><path d="M0 0 C0.68 0.3, 2.56 1.4, 4.1 1.81 C5.64 2.23, 7.72 2.44, 9.25 2.48 C10.79 2.52, 11.85 2.44, 13.29 2.04 C14.74 1.63, 16.63 0.74, 17.9 0.06 C19.18 -0.61, 19.65 -0.99, 20.93 -2.04 C22.2 -3.08, 24.88 -6.33, 25.54 -6.23 C26.2 -6.13, 25.18 -2.83, 24.9 -1.43 C24.62 -0.04, 24.03 1.02, 23.85 2.13 C23.68 3.24, 23.83 4.18, 23.85 5.22 C23.88 6.25, 24.36 7.92, 24.01 8.33 C23.67 8.75, 23.13 7.96, 21.78 7.7 C20.44 7.44, 17.84 6.99, 15.96 6.77 C14.09 6.56, 12.24 6.48, 10.53 6.42 C8.81 6.37, 7.12 6.34, 5.69 6.42 C4.26 6.51, 2.59 7.39, 1.94 6.93 C1.29 6.47, 1.88 4.46, 1.81 3.66 C1.74 2.86, 1.83 2.69, 1.53 2.13 C1.22 1.57, 0.25 0.62, 0 0.32 M0 0 C0.68 0.3, 2.56 1.4, 4.1 1.81 C5.64 2.23, 7.72 2.44, 9.25 2.48 C10.79 2.52, 11.85 2.44, 13.29 2.04 C14.74 1.63, 16.63 0.74, 17.9 0.06 C19.18 -0.61, 19.65 -0.99, 20.93 -2.04 C22.2 -3.08, 24.88 -6.33, 25.54 -6.23 C26.2 -6.13, 25.18 -2.83, 24.9 -1.43 C24.62 -0.04, 24.03 1.02, 23.85 2.13 C23.68 3.24, 23.83 4.18, 23.85 5.22 C23.88 6.25, 24.36 7.92, 24.01 8.33 C23.67 8.75, 23.13 7.96, 21.78 7.7 C20.44 7.44, 17.84 6.99, 15.96 6.77 C14.09 6.56, 12.24 6.48, 10.53 6.42 C8.81 6.37, 7.12 6.34, 5.69 6.42 C4.26 6.51, 2.59 7.39, 1.94 6.93 C1.29 6.47, 1.88 4.46, 1.81 3.66 C1.74 2.86, 1.83 2.69, 1.53 2.13 C1.22 1.57, 0.25 0.62, 0 0.32" stroke="#289548" stroke-width="1" fill="none"></path></g></g><mask></mask></svg>